<svg aria-hidden="true" style="position: absolute; width: 0; height: 0; overflow: hidden;" version="1.1" xmlns="http://www.w3.org/2000/svg" xmlns:xlink="http://www.w3.org/1999/xlink">
<defs>
<symbol id="icon-left-dots-mobile" viewBox="0 0 96 32">
<path fill="#f8d24e" style="fill: var(--color1, #f8d24e)" d="M77.548 16.522c0.213 1.449-0.741 2.803-2.13 3.025s-2.689-0.772-2.902-2.221c-0.213-1.449 0.741-2.803 2.13-3.025s2.689 0.772 2.902 2.221z"></path>
<path fill="#f8d24e" style="fill: var(--color1, #f8d24e)" d="M82.485 12.152c0.213 1.449-0.741 2.803-2.13 3.025s-2.689-0.772-2.902-2.221c-0.213-1.449 0.741-2.803 2.13-3.025s2.689 0.772 2.902 2.221z"></path>
<path fill="#f8d24e" style="fill: var(--color1, #f8d24e)" d="M88.197 7.212c0.213 1.449-0.741 2.803-2.13 3.025s-2.689-0.772-2.902-2.221c-0.213-1.449 0.741-2.803 2.13-3.025s2.689 0.772 2.902 2.221z"></path>
<path fill="#f8d24e" style="fill: var(--color1, #f8d24e)" d="M93.554 2.776c0.213 1.449-0.741 2.803-2.13 3.025s-2.689-0.772-2.902-2.221c-0.213-1.449 0.741-2.803 2.13-3.025s2.689 0.772 2.902 2.221z"></path>
<path fill="#f8d24e" style="fill: var(--color1, #f8d24e)" d="M3.135 12.98c0 1.466-1.146 2.654-2.56 2.654s-2.56-1.188-2.56-2.654c0-1.466 1.146-2.654 2.56-2.654s2.56 1.188 2.56 2.654z"></path>
<path fill="#f8d24e" style="fill: var(--color1, #f8d24e)" d="M9.537 8.999c0 1.466-1.146 2.654-2.56 2.654s-2.56-1.188-2.56-2.654c0-1.466 1.146-2.654 2.56-2.654s2.56 1.188 2.56 2.654z"></path>
<path fill="#f8d24e" style="fill: var(--color1, #f8d24e)" d="M15.508 5.46c0 1.466-1.146 2.654-2.56 2.654s-2.56-1.188-2.56-2.654c0-1.466 1.146-2.654 2.56-2.654s2.56 1.188 2.56 2.654z"></path>
<path fill="#f8d24e" style="fill: var(--color1, #f8d24e)" d="M0.151 23.153c0 1.466-1.146 2.654-2.56 2.654s-2.56-1.188-2.56-2.654c0-1.466 1.146-2.654 2.56-2.654s2.56 1.188 2.56 2.654z"></path>
<path fill="#f8d24e" style="fill: var(--color1, #f8d24e)" d="M5.697 19.615c0 1.466-1.146 2.654-2.56 2.654s-2.56-1.188-2.56-2.654c0-1.466 1.146-2.654 2.56-2.654s2.56 1.188 2.56 2.654z"></path>
<path fill="#f8d24e" style="fill: var(--color1, #f8d24e)" d="M12.097 15.634c0 1.466-1.146 2.654-2.56 2.654s-2.56-1.188-2.56-2.654c0-1.466 1.146-2.654 2.56-2.654s2.56 1.188 2.56 2.654z"></path>
<path fill="#f8d24e" style="fill: var(--color1, #f8d24e)" d="M18.069 12.095c0 1.466-1.146 2.654-2.56 2.654s-2.56-1.188-2.56-2.654c0-1.466 1.146-2.654 2.56-2.654s2.56 1.188 2.56 2.654z"></path>
<path fill="#f8d24e" style="fill: var(--color1, #f8d24e)" d="M6.549 26.692c0 1.466-1.146 2.654-2.56 2.654s-2.56-1.188-2.56-2.654c0-1.466 1.146-2.654 2.56-2.654s2.56 1.188 2.56 2.654z"></path>
<path fill="#f8d24e" style="fill: var(--color1, #f8d24e)" d="M12.096 23.153c0 1.466-1.146 2.654-2.56 2.654s-2.56-1.188-2.56-2.654c0-1.466 1.146-2.654 2.56-2.654s2.56 1.188 2.56 2.654z"></path>
<path fill="#f8d24e" style="fill: var(--color1, #f8d24e)" d="M18.495 19.172c0 1.466-1.146 2.654-2.56 2.654s-2.56-1.188-2.56-2.654c0-1.466 1.146-2.654 2.56-2.654s2.56 1.188 2.56 2.654z"></path>
<path fill="#f8d24e" style="fill: var(--color1, #f8d24e)" d="M24.467 15.634c0 1.466-1.146 2.654-2.56 2.654s-2.56-1.188-2.56-2.654c0-1.466 1.146-2.654 2.56-2.654s2.56 1.188 2.56 2.654z"></path>
<path fill="#f8d24e" style="fill: var(--color1, #f8d24e)" d="M13.801 28.904c0 1.466-1.146 2.654-2.56 2.654s-2.56-1.188-2.56-2.654c0-1.466 1.146-2.654 2.56-2.654s2.56 1.188 2.56 2.654z"></path>
<path fill="#f8d24e" style="fill: var(--color1, #f8d24e)" d="M19.347 25.365c0 1.466-1.146 2.654-2.56 2.654s-2.56-1.188-2.56-2.654c0-1.466 1.146-2.654 2.56-2.654s2.56 1.188 2.56 2.654z"></path>
<path fill="#f8d24e" style="fill: var(--color1, #f8d24e)" d="M25.748 21.384c0 1.466-1.146 2.654-2.56 2.654s-2.56-1.188-2.56-2.654c0-1.466 1.146-2.654 2.56-2.654s2.56 1.188 2.56 2.654z"></path>
<path fill="#f8d24e" style="fill: var(--color1, #f8d24e)" d="M31.719 17.846c0 1.466-1.146 2.654-2.56 2.654s-2.56-1.188-2.56-2.654c0-1.466 1.146-2.654 2.56-2.654s2.56 1.188 2.56 2.654z"></path>
<path fill="#f8d24e" style="fill: var(--color1, #f8d24e)" d="M23.188 29.346c0 1.466-1.146 2.654-2.56 2.654s-2.56-1.188-2.56-2.654c0-1.466 1.146-2.654 2.56-2.654s2.56 1.188 2.56 2.654z"></path>
<path fill="#f8d24e" style="fill: var(--color1, #f8d24e)" d="M28.734 25.808c0 1.466-1.146 2.654-2.56 2.654s-2.56-1.188-2.56-2.654c0-1.466 1.146-2.654 2.56-2.654s2.56 1.188 2.56 2.654z"></path>
<path fill="#f8d24e" style="fill: var(--color1, #f8d24e)" d="M35.134 21.827c0 1.466-1.146 2.654-2.56 2.654s-2.56-1.188-2.56-2.654c0-1.466 1.146-2.654 2.56-2.654s2.56 1.188 2.56 2.654z"></path>
<path fill="#f8d24e" style="fill: var(--color1, #f8d24e)" d="M41.106 18.288c0 1.466-1.146 2.654-2.56 2.654s-2.56-1.188-2.56-2.654c0-1.466 1.146-2.654 2.56-2.654s2.56 1.188 2.56 2.654z"></path>
<path fill="#f8d24e" style="fill: var(--color1, #f8d24e)" d="M34.281 29.346c0 1.466-1.146 2.654-2.56 2.654s-2.56-1.188-2.56-2.654c0-1.466 1.146-2.654 2.56-2.654s2.56 1.188 2.56 2.654z"></path>
<path fill="#f8d24e" style="fill: var(--color1, #f8d24e)" d="M39.826 25.808c0 1.466-1.146 2.654-2.56 2.654s-2.56-1.188-2.56-2.654c0-1.466 1.146-2.654 2.56-2.654s2.56 1.188 2.56 2.654z"></path>
<path fill="#f8d24e" style="fill: var(--color1, #f8d24e)" d="M46.226 21.826c0 1.466-1.146 2.654-2.56 2.654s-2.56-1.188-2.56-2.654c0-1.466 1.146-2.654 2.56-2.654s2.56 1.188 2.56 2.654z"></path>
<path fill="#f8d24e" style="fill: var(--color1, #f8d24e)" d="M52.2 18.288c0 1.466-1.146 2.654-2.56 2.654s-2.56-1.188-2.56-2.654c0-1.466 1.146-2.654 2.56-2.654s2.56 1.188 2.56 2.654z"></path>
<path fill="#f8d24e" style="fill: var(--color1, #f8d24e)" d="M43.665 28.904c0 1.466-1.146 2.654-2.56 2.654s-2.56-1.188-2.56-2.654c0-1.466 1.146-2.654 2.56-2.654s2.56 1.188 2.56 2.654z"></path>
<path fill="#f8d24e" style="fill: var(--color1, #f8d24e)" d="M49.211 25.365c0 1.466-1.146 2.654-2.56 2.654s-2.56-1.188-2.56-2.654c0-1.466 1.146-2.654 2.56-2.654s2.56 1.188 2.56 2.654z"></path>
<path fill="#f8d24e" style="fill: var(--color1, #f8d24e)" d="M55.611 21.384c0 1.466-1.146 2.654-2.56 2.654s-2.56-1.188-2.56-2.654c0-1.466 1.146-2.654 2.56-2.654s2.56 1.188 2.56 2.654z"></path>
<path fill="#f8d24e" style="fill: var(--color1, #f8d24e)" d="M61.583 17.846c0 1.466-1.146 2.654-2.56 2.654s-2.56-1.188-2.56-2.654c0-1.466 1.146-2.654 2.56-2.654s2.56 1.188 2.56 2.654z"></path>
<path fill="#f8d24e" style="fill: var(--color1, #f8d24e)" d="M54.33 28.461c0 1.466-1.146 2.654-2.56 2.654s-2.56-1.188-2.56-2.654c0-1.466 1.146-2.654 2.56-2.654s2.56 1.188 2.56 2.654z"></path>
<path fill="#f8d24e" style="fill: var(--color1, #f8d24e)" d="M59.876 24.923c0 1.466-1.146 2.654-2.56 2.654s-2.56-1.188-2.56-2.654c0-1.466 1.146-2.654 2.56-2.654s2.56 1.188 2.56 2.654z"></path>
<path fill="#f8d24e" style="fill: var(--color1, #f8d24e)" d="M66.277 20.942c0 1.466-1.146 2.654-2.56 2.654s-2.56-1.188-2.56-2.654c0-1.466 1.146-2.654 2.56-2.654s2.56 1.188 2.56 2.654z"></path>
<path fill="#f8d24e" style="fill: var(--color1, #f8d24e)" d="M72.248 17.403c0 1.466-1.146 2.654-2.56 2.654s-2.56-1.188-2.56-2.654c0-1.466 1.146-2.654 2.56-2.654s2.56 1.188 2.56 2.654z"></path>
<path fill="#f8d24e" style="fill: var(--color1, #f8d24e)" d="M64.143 16.961c0 1.466-1.146 2.654-2.56 2.654s-2.56-1.188-2.56-2.654c0-1.466 1.146-2.654 2.56-2.654s2.56 1.188 2.56 2.654z"></path>
<path fill="#f8d24e" style="fill: var(--color1, #f8d24e)" d="M69.689 13.422c0 1.466-1.146 2.654-2.56 2.654s-2.56-1.188-2.56-2.654c0-1.466 1.146-2.654 2.56-2.654s2.56 1.188 2.56 2.654z"></path>
<path fill="#f8d24e" style="fill: var(--color1, #f8d24e)" d="M76.088 9.442c0 1.466-1.146 2.654-2.56 2.654s-2.56-1.188-2.56-2.654c0-1.466 1.146-2.654 2.56-2.654s2.56 1.188 2.56 2.654z"></path>
<path fill="#f8d24e" style="fill: var(--color1, #f8d24e)" d="M82.061 5.903c0 1.466-1.146 2.654-2.56 2.654s-2.56-1.188-2.56-2.654c0-1.466 1.146-2.654 2.56-2.654s2.56 1.188 2.56 2.654z"></path>
</symbol>
<symbol id="icon-left-dots-tablet" viewBox="0 0 101 32">
<path fill="#f8d24e" style="fill: var(--color1, #f8d24e)" d="M6.847 26.048c0 1.94-1.533 3.513-3.424 3.513s-3.424-1.573-3.424-3.513c0-1.94 1.533-3.513 3.424-3.513s3.424 1.573 3.424 3.513z"></path>
<path fill="#f8d24e" style="fill: var(--color1, #f8d24e)" d="M14.264 21.364c0 1.94-1.533 3.513-3.424 3.513s-3.424-1.573-3.424-3.513c0-1.94 1.533-3.513 3.424-3.513s3.424 1.573 3.424 3.513z"></path>
<path fill="#f8d24e" style="fill: var(--color1, #f8d24e)" d="M22.823 16.096c0 1.94-1.533 3.513-3.424 3.513s-3.424-1.573-3.424-3.513c0-1.94 1.533-3.513 3.424-3.513s3.424 1.573 3.424 3.513z"></path>
<path fill="#f8d24e" style="fill: var(--color1, #f8d24e)" d="M30.812 11.412c0 1.94-1.533 3.513-3.424 3.513s-3.424-1.573-3.424-3.513c0-1.94 1.533-3.513 3.424-3.513s3.424 1.573 3.424 3.513z"></path>
<path fill="#f8d24e" style="fill: var(--color1, #f8d24e)" d="M50.213 27.804c0 1.94-1.533 3.513-3.424 3.513s-3.424-1.573-3.424-3.513c0-1.94 1.533-3.513 3.424-3.513s3.424 1.573 3.424 3.513z"></path>
<path fill="#f8d24e" style="fill: var(--color1, #f8d24e)" d="M57.63 23.12c0 1.94-1.533 3.513-3.424 3.513s-3.424-1.573-3.424-3.513c0-1.94 1.533-3.513 3.424-3.513s3.424 1.573 3.424 3.513z"></path>
<path fill="#f8d24e" style="fill: var(--color1, #f8d24e)" d="M66.189 17.852c0 1.94-1.533 3.513-3.424 3.513s-3.424-1.573-3.424-3.513c0-1.94 1.533-3.513 3.424-3.513s3.424 1.573 3.424 3.513z"></path>
<path fill="#f8d24e" style="fill: var(--color1, #f8d24e)" d="M74.176 13.168c0 1.94-1.533 3.513-3.424 3.513s-3.424-1.573-3.424-3.513c0-1.94 1.533-3.513 3.424-3.513s3.424 1.573 3.424 3.513z"></path>
<path fill="#f8d24e" style="fill: var(--color1, #f8d24e)" d="M67.901 25.462c0 1.94-1.533 3.513-3.424 3.513s-3.424-1.573-3.424-3.513c0-1.94 1.533-3.513 3.424-3.513s3.424 1.573 3.424 3.513z"></path>
<path fill="#f8d24e" style="fill: var(--color1, #f8d24e)" d="M75.318 20.779c0 1.94-1.533 3.513-3.424 3.513s-3.424-1.573-3.424-3.513c0-1.94 1.533-3.513 3.424-3.513s3.424 1.573 3.424 3.513z"></path>
<path fill="#f8d24e" style="fill: var(--color1, #f8d24e)" d="M83.877 15.51c0 1.94-1.533 3.513-3.424 3.513s-3.424-1.573-3.424-3.513c0-1.94 1.533-3.513 3.424-3.513s3.424 1.573 3.424 3.513z"></path>
<path fill="#f8d24e" style="fill: var(--color1, #f8d24e)" d="M91.865 10.826c0 1.94-1.533 3.513-3.424 3.513s-3.424-1.573-3.424-3.513c0-1.94 1.533-3.513 3.424-3.513s3.424 1.573 3.424 3.513z"></path>
<path fill="#f8d24e" style="fill: var(--color1, #f8d24e)" d="M100.425 3.801c0 1.94-1.533 3.513-3.424 3.513s-3.424-1.573-3.424-3.513c0-1.94 1.533-3.513 3.424-3.513s3.424 1.573 3.424 3.513z"></path>
<path fill="#f8d24e" style="fill: var(--color1, #f8d24e)" d="M82.165 7.899c0 1.94-1.533 3.513-3.424 3.513s-3.424-1.573-3.424-3.513c0-1.94 1.533-3.513 3.424-3.513s3.424 1.573 3.424 3.513z"></path>
<path fill="#f8d24e" style="fill: var(--color1, #f8d24e)" d="M34.236 27.219c0 1.94-1.533 3.513-3.424 3.513s-3.424-1.573-3.424-3.513c0-1.94 1.533-3.513 3.424-3.513s3.424 1.573 3.424 3.513z"></path>
<path fill="#f8d24e" style="fill: var(--color1, #f8d24e)" d="M41.653 22.535c0 1.94-1.533 3.513-3.424 3.513s-3.424-1.573-3.424-3.513c0-1.94 1.533-3.513 3.424-3.513s3.424 1.573 3.424 3.513z"></path>
<path fill="#f8d24e" style="fill: var(--color1, #f8d24e)" d="M50.213 17.266c0 1.94-1.533 3.513-3.424 3.513s-3.424-1.573-3.424-3.513c0-1.94 1.533-3.513 3.424-3.513s3.424 1.573 3.424 3.513z"></path>
<path fill="#f8d24e" style="fill: var(--color1, #f8d24e)" d="M58.2 12.583c0 1.94-1.533 3.513-3.424 3.513s-3.424-1.573-3.424-3.513c0-1.94 1.533-3.513 3.424-3.513s3.424 1.573 3.424 3.513z"></path>
<path fill="#f8d24e" style="fill: var(--color1, #f8d24e)" d="M19.971 26.633c0 1.94-1.533 3.513-3.424 3.513s-3.424-1.573-3.424-3.513c0-1.94 1.533-3.513 3.424-3.513s3.424 1.573 3.424 3.513z"></path>
<path fill="#f8d24e" style="fill: var(--color1, #f8d24e)" d="M27.389 21.949c0 1.94-1.533 3.513-3.424 3.513s-3.424-1.573-3.424-3.513c0-1.94 1.533-3.513 3.424-3.513s3.424 1.573 3.424 3.513z"></path>
<path fill="#f8d24e" style="fill: var(--color1, #f8d24e)" d="M35.947 16.681c0 1.94-1.533 3.513-3.424 3.513s-3.424-1.573-3.424-3.513c0-1.94 1.533-3.513 3.424-3.513s3.424 1.573 3.424 3.513z"></path>
<path fill="#f8d24e" style="fill: var(--color1, #f8d24e)" d="M43.935 11.997c0 1.94-1.533 3.513-3.424 3.513s-3.424-1.573-3.424-3.513c0-1.94 1.533-3.513 3.424-3.513s3.424 1.573 3.424 3.513z"></path>
</symbol>
<symbol id="icon-dots-desktop" viewBox="0 0 100 32">
<path fill="#f8d24e" style="fill: var(--color1, #f8d24e)" d="M45.691 25.73c0 0.287-0.218 0.519-0.487 0.519s-0.487-0.232-0.487-0.519c0-0.287 0.218-0.519 0.487-0.519s0.487 0.232 0.487 0.519z"></path>
<path fill="#f8d24e" style="fill: var(--color1, #f8d24e)" d="M46.827 25.038c0 0.287-0.218 0.519-0.487 0.519s-0.487-0.232-0.487-0.519c0-0.287 0.218-0.519 0.487-0.519s0.487 0.232 0.487 0.519z"></path>
<path fill="#f8d24e" style="fill: var(--color1, #f8d24e)" d="M44.798 27.633c0 0.287-0.218 0.519-0.487 0.519s-0.487-0.232-0.487-0.519c0-0.287 0.218-0.519 0.487-0.519s0.487 0.232 0.487 0.519z"></path>
<path fill="#f8d24e" style="fill: var(--color1, #f8d24e)" d="M45.853 26.941c0 0.287-0.218 0.519-0.487 0.519s-0.487-0.232-0.487-0.519c0-0.287 0.218-0.519 0.487-0.519s0.487 0.232 0.487 0.519z"></path>
<path fill="#f8d24e" style="fill: var(--color1, #f8d24e)" d="M47.070 26.163c0 0.287-0.218 0.519-0.487 0.519s-0.487-0.232-0.487-0.519c0-0.287 0.218-0.519 0.487-0.519s0.487 0.232 0.487 0.519z"></path>
<path fill="#f8d24e" style="fill: var(--color1, #f8d24e)" d="M48.206 25.471c0 0.287-0.218 0.519-0.487 0.519s-0.487-0.232-0.487-0.519c0-0.287 0.218-0.519 0.487-0.519s0.487 0.232 0.487 0.519z"></path>
<path fill="#f8d24e" style="fill: var(--color1, #f8d24e)" d="M46.583 27.72c0 0.287-0.218 0.519-0.487 0.519s-0.487-0.232-0.487-0.519c0-0.287 0.218-0.519 0.487-0.519s0.487 0.232 0.487 0.519z"></path>
<path fill="#f8d24e" style="fill: var(--color1, #f8d24e)" d="M47.638 27.028c0 0.287-0.218 0.519-0.487 0.519s-0.487-0.232-0.487-0.519c0-0.287 0.218-0.519 0.487-0.519s0.487 0.232 0.487 0.519z"></path>
<path fill="#f8d24e" style="fill: var(--color1, #f8d24e)" d="M48.856 26.249c0 0.287-0.218 0.519-0.487 0.519s-0.487-0.232-0.487-0.519c0-0.287 0.218-0.519 0.487-0.519s0.487 0.232 0.487 0.519z"></path>
<path fill="#f8d24e" style="fill: var(--color1, #f8d24e)" d="M49.992 25.557c0 0.287-0.218 0.519-0.487 0.519s-0.487-0.232-0.487-0.519c0-0.287 0.218-0.519 0.487-0.519s0.487 0.232 0.487 0.519z"></path>
<path fill="#f8d24e" style="fill: var(--color1, #f8d24e)" d="M48.693 27.72c0 0.287-0.218 0.519-0.487 0.519s-0.487-0.232-0.487-0.519c0-0.287 0.218-0.519 0.487-0.519s0.487 0.232 0.487 0.519z"></path>
<path fill="#f8d24e" style="fill: var(--color1, #f8d24e)" d="M49.748 27.028c0 0.287-0.218 0.519-0.487 0.519s-0.487-0.232-0.487-0.519c0-0.287 0.218-0.519 0.487-0.519s0.487 0.232 0.487 0.519z"></path>
<path fill="#f8d24e" style="fill: var(--color1, #f8d24e)" d="M50.966 26.249c0 0.287-0.218 0.519-0.487 0.519s-0.487-0.232-0.487-0.519c0-0.287 0.218-0.519 0.487-0.519s0.487 0.232 0.487 0.519z"></path>
<path fill="#f8d24e" style="fill: var(--color1, #f8d24e)" d="M52.102 25.557c0 0.287-0.218 0.519-0.487 0.519s-0.487-0.232-0.487-0.519c0-0.287 0.218-0.519 0.487-0.519s0.487 0.232 0.487 0.519z"></path>
<path fill="#f8d24e" style="fill: var(--color1, #f8d24e)" d="M50.479 27.633c0 0.287-0.218 0.519-0.487 0.519s-0.487-0.232-0.487-0.519c0-0.287 0.218-0.519 0.487-0.519s0.487 0.232 0.487 0.519z"></path>
<path fill="#f8d24e" style="fill: var(--color1, #f8d24e)" d="M51.534 26.941c0 0.287-0.218 0.519-0.487 0.519s-0.487-0.232-0.487-0.519c0-0.287 0.218-0.519 0.487-0.519s0.487 0.232 0.487 0.519z"></path>
<path fill="#f8d24e" style="fill: var(--color1, #f8d24e)" d="M52.751 26.163c0 0.287-0.218 0.519-0.487 0.519s-0.487-0.232-0.487-0.519c0-0.287 0.218-0.519 0.487-0.519s0.487 0.232 0.487 0.519z"></path>
<path fill="#f8d24e" style="fill: var(--color1, #f8d24e)" d="M53.887 25.471c0 0.287-0.218 0.519-0.487 0.519s-0.487-0.232-0.487-0.519c0-0.287 0.218-0.519 0.487-0.519s0.487 0.232 0.487 0.519z"></path>
<path fill="#f8d24e" style="fill: var(--color1, #f8d24e)" d="M52.508 27.547c0 0.287-0.218 0.519-0.487 0.519s-0.487-0.232-0.487-0.519c0-0.287 0.218-0.519 0.487-0.519s0.487 0.232 0.487 0.519z"></path>
<path fill="#f8d24e" style="fill: var(--color1, #f8d24e)" d="M53.563 26.855c0 0.287-0.218 0.519-0.487 0.519s-0.487-0.232-0.487-0.519c0-0.287 0.218-0.519 0.487-0.519s0.487 0.232 0.487 0.519z"></path>
<path fill="#f8d24e" style="fill: var(--color1, #f8d24e)" d="M54.78 26.076c0 0.287-0.218 0.519-0.487 0.519s-0.487-0.232-0.487-0.519c0-0.287 0.218-0.519 0.487-0.519s0.487 0.232 0.487 0.519z"></path>
<path fill="#f8d24e" style="fill: var(--color1, #f8d24e)" d="M55.916 25.384c0 0.287-0.218 0.519-0.487 0.519s-0.487-0.232-0.487-0.519c0-0.287 0.218-0.519 0.487-0.519s0.487 0.232 0.487 0.519z"></path>
<path fill="#f8d24e" style="fill: var(--color1, #f8d24e)" d="M54.374 25.298c0 0.287-0.218 0.519-0.487 0.519s-0.487-0.232-0.487-0.519c0-0.287 0.218-0.519 0.487-0.519s0.487 0.232 0.487 0.519z"></path>
<path fill="#f8d24e" style="fill: var(--color1, #f8d24e)" d="M55.429 24.606c0 0.287-0.218 0.519-0.487 0.519s-0.487-0.232-0.487-0.519c0-0.287 0.218-0.519 0.487-0.519s0.487 0.232 0.487 0.519z"></path>
<path fill="#f8d24e" style="fill: var(--color1, #f8d24e)" d="M56.647 23.827c0 0.287-0.218 0.519-0.487 0.519s-0.487-0.232-0.487-0.519c0-0.287 0.218-0.519 0.487-0.519s0.487 0.232 0.487 0.519z"></path>
<path fill="#f8d24e" style="fill: var(--color1, #f8d24e)" d="M57.783 23.135c0 0.287-0.218 0.519-0.487 0.519s-0.487-0.232-0.487-0.519c0-0.287 0.218-0.519 0.487-0.519s0.487 0.232 0.487 0.519z"></path>
</symbol>
<symbol id="icon-right-dots-mobile" viewBox="0 0 83 32">
<path fill="#f8d24e" style="fill: var(--color1, #f8d24e)" d="M33.733 29.616c0 0.982-0.764 1.778-1.706 1.778s-1.706-0.796-1.706-1.778c0-0.982 0.764-1.778 1.706-1.778s1.706 0.796 1.706 1.778z"></path>
<path fill="#f8d24e" style="fill: var(--color1, #f8d24e)" d="M37.429 27.245c0 0.982-0.764 1.778-1.706 1.778s-1.706-0.796-1.706-1.778c0-0.982 0.764-1.778 1.706-1.778s1.706 0.796 1.706 1.778z"></path>
<path fill="#f8d24e" style="fill: var(--color1, #f8d24e)" d="M41.692 24.578c0 0.982-0.764 1.778-1.706 1.778s-1.706-0.796-1.706-1.778c0-0.982 0.764-1.778 1.706-1.778s1.706 0.796 1.706 1.778z"></path>
<path fill="#f8d24e" style="fill: var(--color1, #f8d24e)" d="M45.673 22.206c0 0.982-0.764 1.778-1.706 1.778s-1.706-0.796-1.706-1.778c0-0.982 0.764-1.778 1.706-1.778s1.706 0.796 1.706 1.778z"></path>
<path fill="#f8d24e" style="fill: var(--color1, #f8d24e)" d="M43.398 28.431c0 0.982-0.764 1.778-1.706 1.778s-1.706-0.796-1.706-1.778c0-0.982 0.764-1.778 1.706-1.778s1.706 0.796 1.706 1.778z"></path>
<path fill="#f8d24e" style="fill: var(--color1, #f8d24e)" d="M47.094 26.060c0 0.982-0.764 1.778-1.706 1.778s-1.706-0.796-1.706-1.778c0-0.982 0.764-1.778 1.706-1.778s1.706 0.796 1.706 1.778z"></path>
<path fill="#f8d24e" style="fill: var(--color1, #f8d24e)" d="M51.358 23.392c0 0.982-0.764 1.778-1.706 1.778s-1.706-0.796-1.706-1.778c0-0.982 0.764-1.778 1.706-1.778s1.706 0.796 1.706 1.778z"></path>
<path fill="#f8d24e" style="fill: var(--color1, #f8d24e)" d="M55.339 21.021c0 0.982-0.764 1.778-1.706 1.778s-1.706-0.796-1.706-1.778c0-0.982 0.764-1.778 1.706-1.778s1.706 0.796 1.706 1.778z"></path>
<path fill="#f8d24e" style="fill: var(--color1, #f8d24e)" d="M51.643 27.542c0 0.982-0.764 1.778-1.706 1.778s-1.706-0.796-1.706-1.778c0-0.982 0.764-1.778 1.706-1.778s1.706 0.796 1.706 1.778z"></path>
<path fill="#f8d24e" style="fill: var(--color1, #f8d24e)" d="M55.34 25.171c0 0.982-0.764 1.778-1.706 1.778s-1.706-0.796-1.706-1.778c0-0.982 0.764-1.778 1.706-1.778s1.706 0.796 1.706 1.778z"></path>
<path fill="#f8d24e" style="fill: var(--color1, #f8d24e)" d="M59.604 22.503c0 0.982-0.764 1.778-1.706 1.778s-1.706-0.796-1.706-1.778c0-0.982 0.764-1.778 1.706-1.778s1.706 0.796 1.706 1.778z"></path>
<path fill="#f8d24e" style="fill: var(--color1, #f8d24e)" d="M63.583 20.132c0 0.982-0.764 1.778-1.706 1.778s-1.706-0.796-1.706-1.778c0-0.982 0.764-1.778 1.706-1.778s1.706 0.796 1.706 1.778z"></path>
<path fill="#f8d24e" style="fill: var(--color1, #f8d24e)" d="M59.603 26.356c0 0.982-0.764 1.778-1.706 1.778s-1.706-0.796-1.706-1.778c0-0.982 0.764-1.778 1.706-1.778s1.706 0.796 1.706 1.778z"></path>
<path fill="#f8d24e" style="fill: var(--color1, #f8d24e)" d="M63.298 23.985c0 0.982-0.764 1.778-1.706 1.778s-1.706-0.796-1.706-1.778c0-0.982 0.764-1.778 1.706-1.778s1.706 0.796 1.706 1.778z"></path>
<path fill="#f8d24e" style="fill: var(--color1, #f8d24e)" d="M67.562 21.318c0 0.982-0.764 1.778-1.706 1.778s-1.706-0.796-1.706-1.778c0-0.982 0.764-1.778 1.706-1.778s1.706 0.796 1.706 1.778z"></path>
<path fill="#f8d24e" style="fill: var(--color1, #f8d24e)" d="M71.543 18.947c0 0.982-0.764 1.778-1.706 1.778s-1.706-0.796-1.706-1.778c0-0.982 0.764-1.778 1.706-1.778s1.706 0.796 1.706 1.778z"></path>
<path fill="#f8d24e" style="fill: var(--color1, #f8d24e)" d="M62.162 29.616c0 0.982-0.764 1.778-1.706 1.778s-1.706-0.796-1.706-1.778c0-0.982 0.764-1.778 1.706-1.778s1.706 0.796 1.706 1.778z"></path>
<path fill="#f8d24e" style="fill: var(--color1, #f8d24e)" d="M65.858 27.245c0 0.982-0.764 1.778-1.706 1.778s-1.706-0.796-1.706-1.778c0-0.982 0.764-1.778 1.706-1.778s1.706 0.796 1.706 1.778z"></path>
<path fill="#f8d24e" style="fill: var(--color1, #f8d24e)" d="M70.975 29.913c0 0.982-0.764 1.778-1.706 1.778s-1.706-0.796-1.706-1.778c0-0.982 0.764-1.778 1.706-1.778s1.706 0.796 1.706 1.778z"></path>
<path fill="#f8d24e" style="fill: var(--color1, #f8d24e)" d="M70.123 24.578c0 0.982-0.764 1.778-1.706 1.778s-1.706-0.796-1.706-1.778c0-0.982 0.764-1.778 1.706-1.778s1.706 0.796 1.706 1.778z"></path>
<path fill="#f8d24e" style="fill: var(--color1, #f8d24e)" d="M75.24 27.245c0 0.982-0.764 1.778-1.706 1.778s-1.706-0.796-1.706-1.778c0-0.982 0.764-1.778 1.706-1.778s1.706 0.796 1.706 1.778z"></path>
<path fill="#f8d24e" style="fill: var(--color1, #f8d24e)" d="M79.22 29.913c0 0.982-0.764 1.778-1.706 1.778s-1.706-0.796-1.706-1.778c0-0.982 0.764-1.778 1.706-1.778s1.706 0.796 1.706 1.778z"></path>
<path fill="#f8d24e" style="fill: var(--color1, #f8d24e)" d="M74.103 22.206c0 0.982-0.764 1.778-1.706 1.778s-1.706-0.796-1.706-1.778c0-0.982 0.764-1.778 1.706-1.778s1.706 0.796 1.706 1.778z"></path>
<path fill="#f8d24e" style="fill: var(--color1, #f8d24e)" d="M79.22 24.874c0 0.982-0.764 1.778-1.706 1.778s-1.706-0.796-1.706-1.778c0-0.982 0.764-1.778 1.706-1.778s1.706 0.796 1.706 1.778z"></path>
<path fill="#f8d24e" style="fill: var(--color1, #f8d24e)" d="M83.2 27.542c0 0.982-0.764 1.778-1.706 1.778s-1.706-0.796-1.706-1.778c0-0.982 0.764-1.778 1.706-1.778s1.706 0.796 1.706 1.778z"></path>
<path fill="#f8d24e" style="fill: var(--color1, #f8d24e)" d="M16.393 10.055c0 0.982-0.764 1.778-1.706 1.778s-1.706-0.796-1.706-1.778c0-0.982 0.764-1.778 1.706-1.778s1.706 0.796 1.706 1.778z"></path>
<path fill="#f8d24e" style="fill: var(--color1, #f8d24e)" d="M20.088 7.684c0 0.982-0.764 1.778-1.706 1.778s-1.706-0.796-1.706-1.778c0-0.982 0.764-1.778 1.706-1.778s1.706 0.796 1.706 1.778z"></path>
<path fill="#f8d24e" style="fill: var(--color1, #f8d24e)" d="M24.353 5.016c0 0.982-0.764 1.778-1.706 1.778s-1.706-0.796-1.706-1.778c0-0.982 0.764-1.778 1.706-1.778s1.706 0.796 1.706 1.778z"></path>
<path fill="#f8d24e" style="fill: var(--color1, #f8d24e)" d="M28.332 2.645c0 0.982-0.764 1.778-1.706 1.778s-1.706-0.796-1.706-1.778c0-0.982 0.764-1.778 1.706-1.778s1.706 0.796 1.706 1.778z"></path>
<path fill="#f8d24e" style="fill: var(--color1, #f8d24e)" d="M9.285 9.758c0 0.982-0.764 1.778-1.706 1.778s-1.706-0.796-1.706-1.778c0-0.982 0.764-1.778 1.706-1.778s1.706 0.796 1.706 1.778z"></path>
<path fill="#f8d24e" style="fill: var(--color1, #f8d24e)" d="M12.98 7.387c0 0.982-0.764 1.778-1.706 1.778s-1.706-0.796-1.706-1.778c0-0.982 0.764-1.778 1.706-1.778s1.706 0.796 1.706 1.778z"></path>
<path fill="#f8d24e" style="fill: var(--color1, #f8d24e)" d="M17.244 4.72c0 0.982-0.764 1.778-1.706 1.778s-1.706-0.796-1.706-1.778c0-0.982 0.764-1.778 1.706-1.778s1.706 0.796 1.706 1.778z"></path>
<path fill="#f8d24e" style="fill: var(--color1, #f8d24e)" d="M21.224 2.349c0 0.982-0.764 1.778-1.706 1.778s-1.706-0.796-1.706-1.778c0-0.982 0.764-1.778 1.706-1.778s1.706 0.796 1.706 1.778z"></path>
<path fill="#f8d24e" style="fill: var(--color1, #f8d24e)" d="M25.204 29.616c0 0.982-0.764 1.778-1.706 1.778s-1.706-0.796-1.706-1.778c0-0.982 0.764-1.778 1.706-1.778s1.706 0.796 1.706 1.778z"></path>
<path fill="#f8d24e" style="fill: var(--color1, #f8d24e)" d="M28.899 27.245c0 0.982-0.764 1.778-1.706 1.778s-1.706-0.796-1.706-1.778c0-0.982 0.764-1.778 1.706-1.778s1.706 0.796 1.706 1.778z"></path>
<path fill="#f8d24e" style="fill: var(--color1, #f8d24e)" d="M33.163 24.578c0 0.982-0.764 1.778-1.706 1.778s-1.706-0.796-1.706-1.778c0-0.982 0.764-1.778 1.706-1.778s1.706 0.796 1.706 1.778z"></path>
<path fill="#f8d24e" style="fill: var(--color1, #f8d24e)" d="M37.144 22.206c0 0.982-0.764 1.778-1.706 1.778s-1.706-0.796-1.706-1.778c0-0.982 0.764-1.778 1.706-1.778s1.706 0.796 1.706 1.778z"></path>
<path fill="#f8d24e" style="fill: var(--color1, #f8d24e)" d="M20.656 27.838c0 0.982-0.764 1.778-1.706 1.778s-1.706-0.796-1.706-1.778c0-0.982 0.764-1.778 1.706-1.778s1.706 0.796 1.706 1.778z"></path>
<path fill="#f8d24e" style="fill: var(--color1, #f8d24e)" d="M24.351 25.467c0 0.982-0.764 1.778-1.706 1.778s-1.706-0.796-1.706-1.778c0-0.982 0.764-1.778 1.706-1.778s1.706 0.796 1.706 1.778z"></path>
<path fill="#f8d24e" style="fill: var(--color1, #f8d24e)" d="M28.615 22.8c0 0.982-0.764 1.778-1.706 1.778s-1.706-0.796-1.706-1.778c0-0.982 0.764-1.778 1.706-1.778s1.706 0.796 1.706 1.778z"></path>
<path fill="#f8d24e" style="fill: var(--color1, #f8d24e)" d="M32.596 20.429c0 0.982-0.764 1.778-1.706 1.778s-1.706-0.796-1.706-1.778c0-0.982 0.764-1.778 1.706-1.778s1.706 0.796 1.706 1.778z"></path>
<path fill="#f8d24e" style="fill: var(--color1, #f8d24e)" d="M22.361 21.614c0 0.982-0.764 1.778-1.706 1.778s-1.706-0.796-1.706-1.778c0-0.982 0.764-1.778 1.706-1.778s1.706 0.796 1.706 1.778z"></path>
<path fill="#f8d24e" style="fill: var(--color1, #f8d24e)" d="M26.056 19.243c0 0.982-0.764 1.778-1.706 1.778s-1.706-0.796-1.706-1.778c0-0.982 0.764-1.778 1.706-1.778s1.706 0.796 1.706 1.778z"></path>
<path fill="#f8d24e" style="fill: var(--color1, #f8d24e)" d="M30.322 16.575c0 0.982-0.764 1.778-1.706 1.778s-1.706-0.796-1.706-1.778c0-0.982 0.764-1.778 1.706-1.778s1.706 0.796 1.706 1.778z"></path>
<path fill="#f8d24e" style="fill: var(--color1, #f8d24e)" d="M34.301 14.204c0 0.982-0.764 1.778-1.706 1.778s-1.706-0.796-1.706-1.778c0-0.982 0.764-1.778 1.706-1.778s1.706 0.796 1.706 1.778z"></path>
<path fill="#f8d24e" style="fill: var(--color1, #f8d24e)" d="M22.361 11.24c0 0.982-0.764 1.778-1.706 1.778s-1.706-0.796-1.706-1.778c0-0.982 0.764-1.778 1.706-1.778s1.706 0.796 1.706 1.778z"></path>
<path fill="#f8d24e" style="fill: var(--color1, #f8d24e)" d="M26.056 8.869c0 0.982-0.764 1.778-1.706 1.778s-1.706-0.796-1.706-1.778c0-0.982 0.764-1.778 1.706-1.778s1.706 0.796 1.706 1.778z"></path>
<path fill="#f8d24e" style="fill: var(--color1, #f8d24e)" d="M30.322 6.202c0 0.982-0.764 1.778-1.706 1.778s-1.706-0.796-1.706-1.778c0-0.982 0.764-1.778 1.706-1.778s1.706 0.796 1.706 1.778z"></path>
<path fill="#f8d24e" style="fill: var(--color1, #f8d24e)" d="M34.301 3.831c0 0.982-0.764 1.778-1.706 1.778s-1.706-0.796-1.706-1.778c0-0.982 0.764-1.778 1.706-1.778s1.706 0.796 1.706 1.778z"></path>
<path fill="#f8d24e" style="fill: var(--color1, #f8d24e)" d="M21.508 16.872c0 0.982-0.764 1.778-1.706 1.778s-1.706-0.796-1.706-1.778c0-0.982 0.764-1.778 1.706-1.778s1.706 0.796 1.706 1.778z"></path>
<path fill="#f8d24e" style="fill: var(--color1, #f8d24e)" d="M25.205 14.501c0 0.982-0.764 1.778-1.706 1.778s-1.706-0.796-1.706-1.778c0-0.982 0.764-1.778 1.706-1.778s1.706 0.796 1.706 1.778z"></path>
<path fill="#f8d24e" style="fill: var(--color1, #f8d24e)" d="M29.468 11.833c0 0.982-0.764 1.778-1.706 1.778s-1.706-0.796-1.706-1.778c0-0.982 0.764-1.778 1.706-1.778s1.706 0.796 1.706 1.778z"></path>
<path fill="#f8d24e" style="fill: var(--color1, #f8d24e)" d="M33.448 9.462c0 0.982-0.764 1.778-1.706 1.778s-1.706-0.796-1.706-1.778c0-0.982 0.764-1.778 1.706-1.778s1.706 0.796 1.706 1.778z"></path>
<path fill="#f8d24e" style="fill: var(--color1, #f8d24e)" d="M3.598 8.276c0 0.982-0.764 1.778-1.706 1.778s-1.706-0.796-1.706-1.778c0-0.982 0.764-1.778 1.706-1.778s1.706 0.796 1.706 1.778z"></path>
<path fill="#f8d24e" style="fill: var(--color1, #f8d24e)" d="M7.295 5.905c0 0.982-0.764 1.778-1.706 1.778s-1.706-0.796-1.706-1.778c0-0.982 0.764-1.778 1.706-1.778s1.706 0.796 1.706 1.778z"></path>
<path fill="#f8d24e" style="fill: var(--color1, #f8d24e)" d="M11.559 3.238c0 0.982-0.764 1.778-1.706 1.778s-1.706-0.796-1.706-1.778c0-0.982 0.764-1.778 1.706-1.778s1.706 0.796 1.706 1.778z"></path>
<path fill="#f8d24e" style="fill: var(--color1, #f8d24e)" d="M9.569 10.055c0.942 0 1.706-0.796 1.706-1.778s-0.764-1.778-1.706-1.778c-0.942 0-1.706 0.796-1.706 1.778s0.764 1.778 1.706 1.778z"></path>
</symbol>
<symbol id="icon-right-dots-tablet" viewBox="0 0 86 32">
<path fill="#f8d24e" style="fill: var(--color1, #f8d24e)" d="M34.655 29.706c0 0.998-0.789 1.808-1.762 1.808s-1.762-0.809-1.762-1.808c0-0.998 0.789-1.808 1.762-1.808s1.762 0.809 1.762 1.808z"></path>
<path fill="#f8d24e" style="fill: var(--color1, #f8d24e)" d="M38.473 27.295c0 0.998-0.789 1.808-1.762 1.808s-1.762-0.809-1.762-1.808c0-0.998 0.789-1.808 1.762-1.808s1.762 0.809 1.762 1.808z"></path>
<path fill="#f8d24e" style="fill: var(--color1, #f8d24e)" d="M42.878 24.583c0 0.998-0.789 1.808-1.762 1.808s-1.762-0.809-1.762-1.808c0-0.998 0.789-1.808 1.762-1.808s1.762 0.809 1.762 1.808z"></path>
<path fill="#f8d24e" style="fill: var(--color1, #f8d24e)" d="M46.99 22.172c0 0.998-0.789 1.808-1.762 1.808s-1.762-0.809-1.762-1.808c0-0.998 0.789-1.808 1.762-1.808s1.762 0.809 1.762 1.808z"></path>
<path fill="#f8d24e" style="fill: var(--color1, #f8d24e)" d="M44.64 28.5c0 0.998-0.789 1.808-1.762 1.808s-1.762-0.809-1.762-1.808c0-0.998 0.789-1.808 1.762-1.808s1.762 0.809 1.762 1.808z"></path>
<path fill="#f8d24e" style="fill: var(--color1, #f8d24e)" d="M48.458 26.090c0 0.998-0.789 1.808-1.762 1.808s-1.762-0.809-1.762-1.808c0-0.998 0.789-1.808 1.762-1.808s1.762 0.809 1.762 1.808z"></path>
<path fill="#f8d24e" style="fill: var(--color1, #f8d24e)" d="M52.864 23.378c0 0.998-0.789 1.808-1.762 1.808s-1.762-0.809-1.762-1.808c0-0.998 0.789-1.808 1.762-1.808s1.762 0.809 1.762 1.808z"></path>
<path fill="#f8d24e" style="fill: var(--color1, #f8d24e)" d="M56.975 20.967c0 0.998-0.789 1.808-1.762 1.808s-1.762-0.809-1.762-1.808c0-0.998 0.789-1.808 1.762-1.808s1.762 0.809 1.762 1.808z"></path>
<path fill="#f8d24e" style="fill: var(--color1, #f8d24e)" d="M53.157 27.596c0 0.998-0.789 1.808-1.762 1.808s-1.762-0.809-1.762-1.808c0-0.998 0.789-1.808 1.762-1.808s1.762 0.809 1.762 1.808z"></path>
<path fill="#f8d24e" style="fill: var(--color1, #f8d24e)" d="M56.975 25.185c0 0.998-0.789 1.808-1.762 1.808s-1.762-0.809-1.762-1.808c0-0.998 0.789-1.808 1.762-1.808s1.762 0.809 1.762 1.808z"></path>
<path fill="#f8d24e" style="fill: var(--color1, #f8d24e)" d="M61.38 22.474c0 0.998-0.789 1.808-1.762 1.808s-1.762-0.809-1.762-1.808c0-0.998 0.789-1.808 1.762-1.808s1.762 0.809 1.762 1.808z"></path>
<path fill="#f8d24e" style="fill: var(--color1, #f8d24e)" d="M65.492 20.063c0 0.998-0.789 1.808-1.762 1.808s-1.762-0.809-1.762-1.808c0-0.998 0.789-1.808 1.762-1.808s1.762 0.809 1.762 1.808z"></path>
<path fill="#f8d24e" style="fill: var(--color1, #f8d24e)" d="M61.38 26.391c0 0.998-0.789 1.808-1.762 1.808s-1.762-0.809-1.762-1.808c0-0.998 0.789-1.808 1.762-1.808s1.762 0.809 1.762 1.808z"></path>
<path fill="#f8d24e" style="fill: var(--color1, #f8d24e)" d="M65.198 23.98c0 0.998-0.789 1.808-1.762 1.808s-1.762-0.809-1.762-1.808c0-0.998 0.789-1.808 1.762-1.808s1.762 0.809 1.762 1.808z"></path>
<path fill="#f8d24e" style="fill: var(--color1, #f8d24e)" d="M69.604 21.268c0 0.998-0.789 1.808-1.762 1.808s-1.762-0.809-1.762-1.808c0-0.998 0.789-1.808 1.762-1.808s1.762 0.809 1.762 1.808z"></path>
<path fill="#f8d24e" style="fill: var(--color1, #f8d24e)" d="M73.716 18.858c0 0.998-0.789 1.808-1.762 1.808s-1.762-0.809-1.762-1.808c0-0.998 0.789-1.808 1.762-1.808s1.762 0.809 1.762 1.808z"></path>
<path fill="#f8d24e" style="fill: var(--color1, #f8d24e)" d="M64.024 29.706c0 0.998-0.789 1.808-1.762 1.808s-1.762-0.809-1.762-1.808c0-0.998 0.789-1.808 1.762-1.808s1.762 0.809 1.762 1.808z"></path>
<path fill="#f8d24e" style="fill: var(--color1, #f8d24e)" d="M67.842 27.295c0 0.998-0.789 1.808-1.762 1.808s-1.762-0.809-1.762-1.808c0-0.998 0.789-1.808 1.762-1.808s1.762 0.809 1.762 1.808z"></path>
<path fill="#f8d24e" style="fill: var(--color1, #f8d24e)" d="M73.128 30.007c0 0.998-0.789 1.808-1.762 1.808s-1.762-0.809-1.762-1.808c0-0.998 0.789-1.808 1.762-1.808s1.762 0.809 1.762 1.808z"></path>
<path fill="#f8d24e" style="fill: var(--color1, #f8d24e)" d="M72.247 24.583c0 0.998-0.789 1.808-1.762 1.808s-1.762-0.809-1.762-1.808c0-0.998 0.789-1.808 1.762-1.808s1.762 0.809 1.762 1.808z"></path>
<path fill="#f8d24e" style="fill: var(--color1, #f8d24e)" d="M77.534 27.295c0 0.998-0.789 1.808-1.762 1.808s-1.762-0.809-1.762-1.808c0-0.998 0.789-1.808 1.762-1.808s1.762 0.809 1.762 1.808z"></path>
<path fill="#f8d24e" style="fill: var(--color1, #f8d24e)" d="M81.645 30.007c0 0.998-0.789 1.808-1.762 1.808s-1.762-0.809-1.762-1.808c0-0.998 0.789-1.808 1.762-1.808s1.762 0.809 1.762 1.808z"></path>
<path fill="#f8d24e" style="fill: var(--color1, #f8d24e)" d="M76.358 22.172c0 0.998-0.789 1.808-1.762 1.808s-1.762-0.809-1.762-1.808c0-0.998 0.789-1.808 1.762-1.808s1.762 0.809 1.762 1.808z"></path>
<path fill="#f8d24e" style="fill: var(--color1, #f8d24e)" d="M81.645 24.884c0 0.998-0.789 1.808-1.762 1.808s-1.762-0.809-1.762-1.808c0-0.998 0.789-1.808 1.762-1.808s1.762 0.809 1.762 1.808z"></path>
<path fill="#f8d24e" style="fill: var(--color1, #f8d24e)" d="M85.756 27.596c0 0.998-0.789 1.808-1.762 1.808s-1.762-0.809-1.762-1.808c0-0.998 0.789-1.808 1.762-1.808s1.762 0.809 1.762 1.808z"></path>
<path fill="#f8d24e" style="fill: var(--color1, #f8d24e)" d="M16.74 9.818c0 0.998-0.789 1.808-1.762 1.808s-1.762-0.809-1.762-1.808c0-0.998 0.789-1.808 1.762-1.808s1.762 0.809 1.762 1.808z"></path>
<path fill="#f8d24e" style="fill: var(--color1, #f8d24e)" d="M20.558 7.407c0 0.998-0.789 1.808-1.762 1.808s-1.762-0.809-1.762-1.808c0-0.998 0.789-1.808 1.762-1.808s1.762 0.809 1.762 1.808z"></path>
<path fill="#f8d24e" style="fill: var(--color1, #f8d24e)" d="M24.963 4.696c0 0.998-0.789 1.808-1.762 1.808s-1.762-0.809-1.762-1.808c0-0.998 0.789-1.808 1.762-1.808s1.762 0.809 1.762 1.808z"></path>
<path fill="#f8d24e" style="fill: var(--color1, #f8d24e)" d="M29.074 2.285c0 0.998-0.789 1.808-1.762 1.808s-1.762-0.809-1.762-1.808c0-0.998 0.789-1.808 1.762-1.808s1.762 0.809 1.762 1.808z"></path>
<path fill="#f8d24e" style="fill: var(--color1, #f8d24e)" d="M9.398 9.516c0 0.998-0.789 1.808-1.762 1.808s-1.762-0.809-1.762-1.808c0-0.998 0.789-1.808 1.762-1.808s1.762 0.809 1.762 1.808z"></path>
<path fill="#f8d24e" style="fill: var(--color1, #f8d24e)" d="M13.216 7.106c0 0.999-0.789 1.808-1.762 1.808s-1.762-0.809-1.762-1.808c0-0.998 0.789-1.808 1.762-1.808s1.762 0.809 1.762 1.808z"></path>
<path fill="#f8d24e" style="fill: var(--color1, #f8d24e)" d="M17.621 4.394c0 0.998-0.789 1.808-1.762 1.808s-1.762-0.809-1.762-1.808c0-0.998 0.789-1.808 1.762-1.808s1.762 0.809 1.762 1.808z"></path>
<path fill="#f8d24e" style="fill: var(--color1, #f8d24e)" d="M21.732 1.984c0 0.998-0.789 1.808-1.762 1.808s-1.762-0.809-1.762-1.808c0-0.999 0.789-1.808 1.762-1.808s1.762 0.809 1.762 1.808z"></path>
<path fill="#f8d24e" style="fill: var(--color1, #f8d24e)" d="M25.844 29.706c0 0.998-0.789 1.808-1.762 1.808s-1.762-0.809-1.762-1.808c0-0.998 0.789-1.808 1.762-1.808s1.762 0.809 1.762 1.808z"></path>
<path fill="#f8d24e" style="fill: var(--color1, #f8d24e)" d="M29.662 27.295c0 0.998-0.789 1.808-1.762 1.808s-1.762-0.809-1.762-1.808c0-0.998 0.789-1.808 1.762-1.808s1.762 0.809 1.762 1.808z"></path>
<path fill="#f8d24e" style="fill: var(--color1, #f8d24e)" d="M34.067 24.583c0 0.998-0.789 1.808-1.762 1.808s-1.762-0.809-1.762-1.808c0-0.998 0.789-1.808 1.762-1.808s1.762 0.809 1.762 1.808z"></path>
<path fill="#f8d24e" style="fill: var(--color1, #f8d24e)" d="M38.179 22.172c0 0.998-0.789 1.808-1.762 1.808s-1.762-0.809-1.762-1.808c0-0.998 0.789-1.808 1.762-1.808s1.762 0.809 1.762 1.808z"></path>
<path fill="#f8d24e" style="fill: var(--color1, #f8d24e)" d="M21.146 27.898c0 0.998-0.789 1.808-1.762 1.808s-1.762-0.809-1.762-1.808c0-0.998 0.789-1.808 1.762-1.808s1.762 0.809 1.762 1.808z"></path>
<path fill="#f8d24e" style="fill: var(--color1, #f8d24e)" d="M24.964 25.487c0 0.998-0.789 1.808-1.762 1.808s-1.762-0.809-1.762-1.808c0-0.998 0.789-1.808 1.762-1.808s1.762 0.809 1.762 1.808z"></path>
<path fill="#f8d24e" style="fill: var(--color1, #f8d24e)" d="M29.369 22.775c0 0.998-0.789 1.808-1.762 1.808s-1.762-0.809-1.762-1.808c0-0.998 0.789-1.808 1.762-1.808s1.762 0.809 1.762 1.808z"></path>
<path fill="#f8d24e" style="fill: var(--color1, #f8d24e)" d="M33.48 20.365c0 0.998-0.789 1.808-1.762 1.808s-1.762-0.809-1.762-1.808c0-0.998 0.789-1.808 1.762-1.808s1.762 0.809 1.762 1.808z"></path>
<path fill="#f8d24e" style="fill: var(--color1, #f8d24e)" d="M22.907 21.57c0 0.998-0.789 1.808-1.762 1.808s-1.762-0.809-1.762-1.808c0-0.998 0.789-1.808 1.762-1.808s1.762 0.809 1.762 1.808z"></path>
<path fill="#f8d24e" style="fill: var(--color1, #f8d24e)" d="M26.725 19.159c0 0.998-0.789 1.808-1.762 1.808s-1.762-0.809-1.762-1.808c0-0.998 0.789-1.808 1.762-1.808s1.762 0.809 1.762 1.808z"></path>
<path fill="#f8d24e" style="fill: var(--color1, #f8d24e)" d="M31.131 16.447c0 0.998-0.789 1.808-1.762 1.808s-1.762-0.809-1.762-1.808c0-0.998 0.789-1.808 1.762-1.808s1.762 0.809 1.762 1.808z"></path>
<path fill="#f8d24e" style="fill: var(--color1, #f8d24e)" d="M35.242 14.037c0 0.998-0.789 1.808-1.762 1.808s-1.762-0.809-1.762-1.808c0-0.998 0.789-1.808 1.762-1.808s1.762 0.809 1.762 1.808z"></path>
<path fill="#f8d24e" style="fill: var(--color1, #f8d24e)" d="M22.907 11.024c0 0.998-0.789 1.808-1.762 1.808s-1.762-0.809-1.762-1.808c0-0.998 0.789-1.808 1.762-1.808s1.762 0.809 1.762 1.808z"></path>
<path fill="#f8d24e" style="fill: var(--color1, #f8d24e)" d="M26.725 8.613c0 0.998-0.789 1.808-1.762 1.808s-1.762-0.809-1.762-1.808c0-0.998 0.789-1.808 1.762-1.808s1.762 0.809 1.762 1.808z"></path>
<path fill="#f8d24e" style="fill: var(--color1, #f8d24e)" d="M31.131 5.901c0 0.998-0.789 1.808-1.762 1.808s-1.762-0.809-1.762-1.808c0-0.998 0.789-1.808 1.762-1.808s1.762 0.809 1.762 1.808z"></path>
<path fill="#f8d24e" style="fill: var(--color1, #f8d24e)" d="M35.242 3.49c0 0.998-0.789 1.808-1.762 1.808s-1.762-0.809-1.762-1.808c0-0.998 0.789-1.808 1.762-1.808s1.762 0.809 1.762 1.808z"></path>
<path fill="#f8d24e" style="fill: var(--color1, #f8d24e)" d="M22.027 16.749c0 0.998-0.789 1.808-1.762 1.808s-1.762-0.809-1.762-1.808c0-0.998 0.789-1.808 1.762-1.808s1.762 0.809 1.762 1.808z"></path>
<path fill="#f8d24e" style="fill: var(--color1, #f8d24e)" d="M25.845 14.338c0 0.998-0.789 1.808-1.762 1.808s-1.762-0.809-1.762-1.808c0-0.998 0.789-1.808 1.762-1.808s1.762 0.809 1.762 1.808z"></path>
<path fill="#f8d24e" style="fill: var(--color1, #f8d24e)" d="M30.25 11.626c0 0.998-0.789 1.808-1.762 1.808s-1.762-0.809-1.762-1.808c0-0.998 0.789-1.808 1.762-1.808s1.762 0.809 1.762 1.808z"></path>
<path fill="#f8d24e" style="fill: var(--color1, #f8d24e)" d="M34.361 9.216c0 0.998-0.789 1.808-1.762 1.808s-1.762-0.809-1.762-1.808c0-0.998 0.789-1.808 1.762-1.808s1.762 0.809 1.762 1.808z"></path>
<path fill="#f8d24e" style="fill: var(--color1, #f8d24e)" d="M3.524 8.010c0 0.998-0.789 1.808-1.762 1.808s-1.762-0.809-1.762-1.808c0-0.998 0.789-1.808 1.762-1.808s1.762 0.809 1.762 1.808z"></path>
<path fill="#f8d24e" style="fill: var(--color1, #f8d24e)" d="M7.342 5.599c0 0.998-0.789 1.808-1.762 1.808s-1.762-0.809-1.762-1.808c0-0.998 0.789-1.808 1.762-1.808s1.762 0.809 1.762 1.808z"></path>
<path fill="#f8d24e" style="fill: var(--color1, #f8d24e)" d="M11.748 2.888c0 0.998-0.789 1.808-1.762 1.808s-1.762-0.809-1.762-1.808c0-0.998 0.789-1.808 1.762-1.808s1.762 0.809 1.762 1.808z"></path>
<path fill="#f8d24e" style="fill: var(--color1, #f8d24e)" d="M9.692 9.818c0.973 0 1.762-0.809 1.762-1.808s-0.789-1.808-1.762-1.808-1.762 0.809-1.762 1.808c0 0.998 0.789 1.808 1.762 1.808z"></path>
</symbol>
<symbol width="40" id="icon-arrow-default" viewBox="0 0 82 32">
<path d="M81.414 17.414c0.781-0.781 0.781-2.047 0-2.828l-12.728-12.728c-0.781-0.781-2.047-0.781-2.828 0s-0.781 2.047 0 2.828l11.314 11.314-11.314 11.314c-0.781 0.781-0.781 2.047 0 2.828s2.047 0.781 2.828 0l12.728-12.728zM0 18h80v-4h-80v4z"></path>
</symbol>
<symbol width="50" id="icon-arrow-hover" viewBox="0 0 102 32">
<path d="M101.414 17.414c0.781-0.781 0.781-2.047 0-2.828l-12.728-12.728c-0.781-0.781-2.047-0.781-2.828 0s-0.781 2.047 0 2.828l11.314 11.314-11.314 11.314c-0.781 0.781-0.781 2.047 0 2.828s2.047 0.781 2.828 0l12.728-12.728zM0 18h100v-4h-100v4z"></path>
</symbol>
<symbol width="50" id="icon-arrow-focus" viewBox="0 0 69 32">
<path d="M68.081 17.414c0.781-0.781 0.781-2.047 0-2.829l-12.728-12.728c-0.781-0.781-2.047-0.781-2.828 0s-0.781 2.047 0 2.828l11.314 11.314-11.314 11.314c-0.781 0.781-0.781 2.047 0 2.828s2.047 0.781 2.828 0l12.728-12.728zM0 18h66.667v-4h-66.667v4z"></path>
</symbol>
</defs>
</svg>
